# xmcd CD database file
#
# Track frame offsets:
#	150
#	33130
#	53446
#	72456
#	96088
#	116193
#	145955
#	170432
#	198696
#	213386
#
# Disc length: 2998 seconds
#
# Revision: 0
# Processed by: cddbd v1.5.2PL0 Copyright (c) Steve Scherf et al.
# Submitted via: CDex 1.70beta2
#
DISCID=920bb40a
DTITLE=Various Artist - Salsa Mayor
DYEAR=1900
DGENRE=Salsa
TTITLE0=Juancito Martinez - Favor y sentimento
TTITLE1=Richie Ray and Bobby Cruz - Tin marin
TTITLE2=Juancito Martinez - Odiame
TTITLE3=Juancito Martinez - Yo soy un hombre camara
TTITLE4=Juancito Martinez - Solo me dejaste
TTITLE5=Eddie Palmieri - Cafe
TTITLE6=Juancito Martinez - Desolada
TTITLE7=Ismael Quintana - Mi debilidad
TTITLE8=Juancito Martinez - Preferencia
TTITLE9=Ray Barretto - El watusi
EXTD=
EXTT0=
EXTT1=
EXTT2=
EXTT3=
EXTT4=
EXTT5=
EXTT6=
EXTT7=
EXTT8=
EXTT9=
PLAYORDER=
